<svg width="531" height="406" viewBox="0 0 531 406" fill="none" xmlns="http://www.w3.org/2000/svg">
<g clip-path="url(#clip0_5_456)">
<path d="M495.075 349.988L495.983 329.579C505.445 324.521 515.998 321.849 526.727 321.796C511.961 333.869 513.806 357.141 503.795 373.376C500.634 378.416 496.38 382.679 491.347 385.851C486.314 389.023 480.632 391.021 474.722 391.698L462.365 399.264C460.669 389.811 461.043 380.103 463.46 370.809C465.878 361.515 470.282 352.855 476.368 345.426C479.824 341.293 483.786 337.611 488.162 334.467C491.121 342.271 495.075 349.988 495.075 349.988Z" fill="#F2F2F2"/>
<path d="M307.694 404.345C301.4 403.897 299.759 405.138 290.237 404.345H272.779L275.05 362.566L302.533 373.579L439.108 376.932L439.028 377.164C438.966 377.342 432.902 395.08 437.642 401.797L437.839 402.075L437.455 402.078L312.169 403.227C310.801 403.24 309.051 404.441 307.694 404.345Z" fill="#F2F2F2"/>
<path d="M314.778 404.891C302.62 404.026 290.031 408.753 279.524 403.417L271.125 403.925L271.101 403.855C271.036 403.661 267.068 372.442 275.089 360.337L275.442 359.804L275.718 362.671L273.074 401.561L278.934 399.605C293.168 406.305 310.095 401.88 326.386 401.819L437.251 401.409C439.574 401.401 441.508 402.988 441.57 404.947L441.576 405.138L321.474 405.129C319.235 405.129 317.002 405.05 314.778 404.891Z" fill="#CCCCCC"/>
<path d="M431.408 385.358L306.646 382.878L306.518 382.831L277.041 371.783L277.598 370.297L306.948 381.297L431.439 383.771L431.408 385.358Z" fill="#E6E6E6"/>
<path d="M430.742 392.039L305.98 389.559L305.853 389.511L276.375 378.464L276.933 376.977L306.283 387.978L430.774 390.452L430.742 392.039Z" fill="#E6E6E6"/>
<path d="M430.076 398.72L305.314 396.24L305.187 396.192L275.71 385.144L276.267 383.657L305.617 394.659L430.108 397.133L430.076 398.72Z" fill="#E6E6E6"/>
<path d="M315.64 377.364C304.072 376.582 292.794 373.4 282.524 368.019L273.876 363.432L274.102 361.165C274.165 360.832 274.349 360.534 274.618 360.329C274.887 360.124 275.223 360.025 275.561 360.052L276.324 360.062L392.676 361.774C400.291 361.869 407.837 363.238 414.999 365.826L440.35 375.03L440.337 375.164C440.124 377.3 437.97 378.951 435.433 378.921L320.823 377.578C319.089 377.558 317.361 377.486 315.64 377.364Z" fill="#E6E6E6"/>
<path d="M440.107 375.521L440.081 375.52L300.554 372.322L300.457 372.278L275.301 360.628L275.557 360.238L276.321 360.248L300.787 371.584L439.02 374.749L440.128 374.775L440.107 375.521Z" fill="#CCCCCC"/>
<path d="M331.637 361.063L329.866 361.038L289.879 360.446L287.985 360.42C297.121 370.147 317.323 372.581 346.934 368.813L331.637 361.063Z" fill="#CCCCCC"/>
<path d="M444.061 128.407L446.5 134.081L442.514 154.233L401.842 148.579L402.167 124.005L402.983 118.623L444.061 128.407Z" fill="#FFB6B6"/>
<path d="M465.074 389.585H456.101L451.83 354.974H465.074V389.585Z" fill="#FFB6B6"/>
<path d="M438.383 401.299C438.384 402.316 438.788 403.29 439.507 404.009C440.226 404.728 441.2 405.132 442.217 405.133H459.288L462.231 399.059L463.373 405.133H469.808L467.999 383.436L465.074 383.265L455.247 382.68L453.663 382.581V388.727L440.039 398.141C439.528 398.494 439.111 398.966 438.822 399.516C438.534 400.066 438.383 400.678 438.383 401.299Z" fill="#2F2E41"/>
<path d="M382.137 349.908H373.164L367.886 298.952L384.746 297.945L382.137 349.908Z" fill="#FFB6B6"/>
<path d="M355.446 361.622C355.447 362.639 355.851 363.613 356.57 364.332C357.289 365.051 358.263 365.455 359.28 365.456H376.351L379.294 359.381L380.436 365.456H386.871L385.062 343.759L382.452 343.605L372.454 343.003L370.726 342.904V349.05L357.102 358.463C356.591 358.817 356.174 359.289 355.885 359.839C355.597 360.389 355.446 361.001 355.446 361.622V361.622Z" fill="#2F2E41"/>
<path d="M468.883 359.738H468.848L467.122 303.461C468.239 301.307 468.806 298.91 468.772 296.484C468.738 294.057 468.105 291.677 466.929 289.555L466.682 289.108L467.323 286.138C468.145 282.323 467.768 278.346 466.242 274.754L464.632 222.258C470.383 184.982 442.973 160.672 442.973 160.672L445.493 141.135L401.159 142.142L401.913 160.672L393.098 190.96C388.458 236.16 357.235 264.571 361.981 307.795C361.991 307.919 361.972 308.044 361.927 308.16C361.445 309.624 361.276 311.173 361.429 312.707C361.583 314.24 362.056 315.725 362.818 317.065C363.016 317.407 363.152 317.78 363.22 318.169C364.197 325.747 364.325 316.162 365.62 323.672L365.368 323.8C364.46 324.113 364.071 325.371 364.498 326.609C364.926 327.847 366.008 328.597 366.916 328.283L390.616 328.537C391.523 328.223 391.913 326.966 391.485 325.728C391.058 324.49 389.976 323.74 389.068 324.053L387.594 324.799L390.06 316.728L390.925 315.921C391.339 315.534 391.661 315.059 391.865 314.53C392.07 314.001 392.152 313.433 392.106 312.868C392.06 312.304 391.887 311.756 391.6 311.268C391.313 310.779 390.919 310.362 390.447 310.047L392.905 296.932L392.556 287.013L393.275 275.76L424.371 230.698L436.953 292.942L449.804 360.364C449.504 360.635 449.279 360.978 449.15 361.36C449.021 361.743 448.992 362.152 449.067 362.549C449.185 363.103 449.492 363.599 449.936 363.952C450.38 364.304 450.933 364.491 451.499 364.481H468.945C469.311 364.481 469.672 364.396 469.999 364.233C470.327 364.071 470.613 363.834 470.834 363.543C471.056 363.252 471.207 362.914 471.276 362.555C471.346 362.196 471.331 361.825 471.234 361.473C471.087 360.966 470.777 360.521 470.352 360.208C469.927 359.894 469.411 359.729 468.883 359.738V359.738Z" fill="#2F2E41"/>
<path d="M453.368 32.6467C453.37 36.2397 452.489 39.7782 450.804 42.9514C449.118 46.1247 446.68 48.8357 443.702 50.8464C440.725 52.8572 437.299 54.1062 433.726 54.4839C430.153 54.8616 426.542 54.3564 423.21 53.0126C419.877 51.6688 416.926 49.5275 414.614 46.7768C412.303 44.026 410.702 40.7499 409.952 37.2359C409.202 33.722 409.326 30.0776 410.314 26.6229C411.301 23.1681 413.121 20.0086 415.615 17.4216L415.72 17.3163C415.896 17.1319 416.071 16.9475 416.256 16.7718C416.257 16.7719 416.258 16.7717 416.259 16.7712C416.26 16.7708 416.261 16.7701 416.262 16.7693C416.263 16.7685 416.263 16.7675 416.264 16.7664C416.264 16.7654 416.264 16.7642 416.264 16.7631C416.516 16.5793 416.749 16.3704 416.958 16.1397C419.921 11.9989 423.281 8.52682 431.419 10.696C443.135 13.8189 453.368 20.521 453.368 32.6467Z" fill="#2F2E41"/>
<path d="M332.793 23.2498C332.743 24.4242 332.952 25.5952 333.403 26.6804C333.855 27.7656 334.539 28.7385 335.408 29.5307C336.276 30.3228 337.308 30.9149 338.43 31.2652C339.552 31.6156 340.737 31.7156 341.902 31.5583L398.509 78.0176L407.156 62.8196L348.794 21.9306C348.4 19.9911 347.308 18.2636 345.726 17.0752C344.143 15.8869 342.18 15.3204 340.207 15.483C338.235 15.6456 336.391 16.5261 335.025 17.9575C333.658 19.389 332.864 21.2721 332.793 23.2498V23.2498Z" fill="#FFB6B6"/>
<path d="M422.412 91.719C422.412 91.719 422.394 90.0458 413.396 90.1101C402.226 90.19 371.462 74.1526 374.153 59.0488C372.875 59.6262 371.442 59.762 370.079 59.435C368.715 59.108 367.499 58.3367 366.623 57.2426L381.599 42.8226C386.299 43.14 386.347 46.2849 385.944 48.0907L397.981 52.8736L429.329 70.8849L423.794 88.9767L422.412 91.719Z" fill="#6C63FF"/>
<path d="M426.011 56.132C436.176 56.132 444.417 47.8911 444.417 37.7254C444.417 27.5597 436.176 19.3188 426.011 19.3188C415.846 19.3188 407.605 27.5597 407.605 37.7254C407.605 47.8911 415.846 56.132 426.011 56.132Z" fill="#FFB7B7"/>
<path d="M400.714 129.278C399.697 130.635 399.178 132.3 399.244 133.994C399.309 135.689 399.955 137.309 401.074 138.583C401.083 139.123 401.164 139.645 401.929 141.58C402.029 141.768 402.146 141.945 402.28 142.111C402.304 142.151 402.331 142.19 402.361 142.228C403.166 143.27 404.287 144.024 405.555 144.379L439.247 153.783L443.702 155.025L444.485 155.241L444.917 149.157C445.918 148.327 446.59 147.165 446.809 145.883C447.029 144.6 446.782 143.281 446.113 142.165L445.492 141.139L449.11 131.411L449.461 130.448L458.685 105.619L458.694 103.963L458.712 102.253L458.802 90.32C458.806 86.5591 457.939 82.8483 456.268 79.4788C454.598 76.1093 452.169 73.1728 449.173 70.8995C446.444 68.8142 443.298 67.341 439.949 66.5799L439.877 66.5709L436.233 61.6663L421.447 63.1422L420.223 65.6529L418.739 68.6767L408.021 75.0572L404.358 83.5705L401.884 89.3301C398.05 92.0839 395.764 95.6206 395.107 99.8323C393.704 108.778 399.967 117.732 400.714 118.758L400.903 129.026L400.714 129.278Z" fill="#6C63FF"/>
<path d="M445.273 42.5509C445.107 42.5245 444.94 42.4893 444.773 42.463C441.902 41.9537 439.031 41.4533 436.169 40.9352L435.905 34.4467L432.437 40.2591C424.526 42.8844 417.125 41.4006 410.162 38.1256C407.866 37.0353 405.637 35.8067 403.49 34.4467C402.782 23.473 407.219 16.4478 415.474 17.1846C415.776 17.2115 415.992 16.9037 416.256 16.7719C416.257 16.7719 416.258 16.7717 416.259 16.7712C416.26 16.7708 416.261 16.7701 416.262 16.7693C416.263 16.7685 416.263 16.7675 416.264 16.7664C416.264 16.7654 416.264 16.7642 416.264 16.7631C416.712 16.5523 417.169 16.3504 417.625 16.1661C421.2 14.7692 425.097 14.4154 428.865 15.1459C432.632 15.8764 436.115 17.6612 438.908 20.2928C444.527 25.6576 447.056 34.5169 445.273 42.5509Z" fill="#2F2E41"/>
<path d="M444.773 42.463C444.773 42.463 439.321 22.1103 415.948 17.4128C415.922 17.4041 415.834 17.369 415.72 17.3163C415.65 17.2724 415.562 17.2284 415.474 17.1846C415.738 17.0353 415.992 16.9037 416.256 16.7719C416.257 16.7719 416.258 16.7717 416.259 16.7712C416.26 16.7708 416.261 16.7701 416.262 16.7693C416.263 16.7685 416.263 16.7675 416.264 16.7664C416.264 16.7654 416.265 16.7642 416.265 16.7631C416.493 16.5523 416.721 16.3416 416.958 16.1397L417.625 16.1661C417.625 16.1661 441.077 12.452 444.773 42.463Z" fill="#FD6584"/>
<path d="M453.764 170.762C453.332 171.132 452.805 171.375 452.243 171.466C451.681 171.557 451.105 171.492 450.578 171.277C449.528 170.832 448.596 170.151 447.854 169.285C444.827 166.109 442.664 162.211 441.571 157.961L442.581 156.165C442.184 153.949 442.557 151.665 443.638 149.691C444.718 147.717 446.441 146.172 448.521 145.313C449.704 144.811 451.016 144.697 452.268 144.987C452.889 145.141 453.457 145.46 453.911 145.91C454.366 146.36 454.69 146.925 454.85 147.544C455.239 149.466 453.638 151.201 452.018 152.304C449.194 154.221 445.929 155.389 442.53 155.699C446.688 158.042 450.282 161.268 453.06 165.148C453.702 165.958 454.175 166.888 454.453 167.883C454.586 168.382 454.593 168.907 454.472 169.409C454.352 169.912 454.109 170.377 453.764 170.762Z" fill="#2F2E41"/>
<path d="M221.11 405.786H530.01C530.273 405.786 530.525 405.682 530.71 405.496C530.896 405.311 531 405.059 531 404.797C531 404.534 530.896 404.283 530.71 404.097C530.525 403.911 530.273 403.807 530.01 403.807H221.11C220.848 403.807 220.596 403.911 220.411 404.097C220.225 404.283 220.121 404.534 220.121 404.797C220.121 405.059 220.225 405.311 220.411 405.496C220.596 405.682 220.848 405.786 221.11 405.786V405.786V405.786Z" fill="#CCCCCC"/>
<path d="M303.148 151.384V151.901C302.035 150.597 300.9 149.305 299.776 148.012C299.304 147.472 298.832 146.933 298.36 146.393C296.359 144.123 294.347 141.86 292.324 139.605C290.29 137.357 288.255 135.109 286.198 132.872C285.704 132.332 285.21 131.793 284.704 131.253C284.299 130.8 283.859 130.379 283.389 129.994C282.914 129.599 282.369 129.298 281.781 129.106C281.106 128.919 280.393 128.912 279.714 129.084C278.938 129.264 278.196 129.545 277.443 129.781C276.667 130.039 275.903 130.287 275.128 130.534C273.577 131.04 272.037 131.546 270.486 132.051C270.467 132.059 270.447 132.063 270.427 132.063C270.407 132.063 270.387 132.058 270.368 132.051C270.35 132.043 270.333 132.031 270.319 132.017C270.304 132.003 270.293 131.986 270.286 131.967L270.283 131.961C270.275 131.94 270.271 131.917 270.272 131.894C270.273 131.871 270.279 131.849 270.29 131.828C270.3 131.808 270.315 131.79 270.334 131.776C270.352 131.762 270.373 131.753 270.396 131.748C270.778 131.624 271.171 131.501 271.565 131.377C273.127 130.86 274.678 130.354 276.24 129.849C277.016 129.59 277.791 129.343 278.567 129.095C279.286 128.822 280.046 128.67 280.815 128.646C282.07 128.736 283.248 129.289 284.119 130.197C284.603 130.646 285.041 131.118 285.479 131.602C285.996 132.164 286.513 132.726 287.03 133.288C289.11 135.558 291.174 137.836 293.223 140.122C295.28 142.415 297.318 144.711 299.338 147.012C299.484 147.18 299.63 147.349 299.776 147.518C300.911 148.799 302.024 150.091 303.148 151.384Z" fill="white"/>
<path d="M283.214 132.065C282.79 131.518 282.224 131.098 281.577 130.849L280.938 130.871C285.955 138.678 292.527 145.366 300.244 150.518C294.567 144.367 288.891 138.216 283.214 132.065Z" fill="white"/>
<path d="M387.903 213.19L362.44 76.851C362.005 74.6035 360.819 72.5707 359.076 71.0859C357.334 69.6011 355.138 68.7524 352.85 68.679C352.644 68.6745 352.439 68.6745 352.233 68.679L334.887 69.3013L333.021 69.3699L324.364 69.681L322.497 69.7451L316.929 69.9464L204.648 73.9775C204.479 73.9867 204.305 73.9866 204.136 73.9821L178.976 73.4559L169.665 73.2637L169.367 73.2592L162.495 73.1127L102.612 71.8681L86.7355 71.5341L78.907 71.374L77.0311 71.3328L68.1045 71.1497L66.2332 71.1086L57.1006 70.921L55.2293 70.8798L45.1954 70.6693L43.6214 70.6373L34.6719 70.4497L33.2582 70.4222H33.0523C30.6764 70.4319 28.3804 71.2813 26.5702 72.8203C24.76 74.3593 23.5522 76.4887 23.1603 78.8322L0.132222 220.309C-0.101626 221.742 -0.0211152 223.209 0.36816 224.608C0.757434 226.007 1.44615 227.305 2.38665 228.411C3.32714 229.517 4.49691 230.406 5.8149 231.015C7.1329 231.625 8.56762 231.94 10.0197 231.94H142.267C144.214 231.946 146.108 232.571 147.675 233.725L150.183 235.582C151.911 236.854 153.999 237.543 156.144 237.55C181.686 230.808 208.54 230.808 234.082 237.55C235.399 237.553 236.703 237.295 237.92 236.791C239.136 236.287 240.241 235.546 241.169 234.612C242.757 233.025 244.876 232.082 247.117 231.963L378.578 225.036C380.003 224.961 381.397 224.583 382.664 223.926C383.932 223.269 385.044 222.349 385.927 221.228C386.81 220.106 387.443 218.809 387.784 217.422C388.124 216.036 388.165 214.593 387.903 213.19V213.19Z" fill="#CCCCCC"/>
<path d="M351.877 191.929C351.708 196.549 349.711 200.913 346.326 204.062C342.941 207.211 338.444 208.886 333.824 208.72C326.19 208.451 317.081 208.316 307.194 208.522C274.906 209.212 234.341 213.656 209.941 229.638C206.874 231.651 203.25 232.645 199.585 232.479C199.315 232.463 199.054 232.447 198.784 232.424C194.984 232.076 191.405 230.49 188.595 227.908C175.153 215.608 144.325 200.713 73.7577 199.666C73.4641 199.666 73.1784 199.65 72.8928 199.634C70.6072 199.49 68.3723 198.898 66.316 197.89C64.2596 196.881 62.4221 195.478 60.9085 193.759C59.3948 192.041 58.2346 190.041 57.4943 187.873C56.754 185.706 56.4481 183.414 56.594 181.129L63.5293 71.0562L64.5688 54.5584L66.3939 25.6972C66.578 22.7907 67.8616 20.0632 69.9839 18.069C72.1063 16.0748 74.9083 14.9633 77.8205 14.9605H77.8919L119.932 15.2065C137.644 16.008 152.313 18.2643 163.941 21.9755C167.912 23.2072 171.777 24.7624 175.494 26.6257C180.572 29.0875 185.134 32.4944 188.936 36.664C191.305 39.3277 194.536 41.0723 198.062 41.5919C198.609 41.6736 199.16 41.724 199.712 41.7427C202.964 41.8773 206.173 40.9589 208.861 39.124C236.325 20.7217 292.292 19.3251 323.199 20.1186C327.521 20.2194 331.651 21.9257 334.785 24.9051C337.918 27.8844 339.83 31.9235 340.148 36.2355L341.402 52.654L342.648 69.0248L349.837 163.639L351.837 189.961C351.886 190.616 351.899 191.273 351.877 191.929V191.929Z" fill="#F2F2F2"/>
<path d="M84.2166 53.6933C109.551 45.6101 137.815 47.7501 161.816 59.1377C168.664 62.3701 175.132 66.3537 181.1 71.0152C182.788 72.3402 185.191 69.9701 183.484 68.6309C161.44 51.5319 133.741 43.409 105.954 45.8944C98.2664 46.5824 90.6769 48.1072 83.3202 50.4418C81.2607 51.0989 82.141 54.3556 84.2165 53.6933H84.2166Z" fill="#3F3D56"/>
<path d="M223.624 72.3233C247.179 59.9422 275.385 57.2423 300.995 64.2703C308.296 66.2692 315.352 69.0748 322.033 72.6353C323.947 73.6565 325.652 70.7467 323.735 69.7237C299.326 56.699 270.026 53.7007 243.372 60.9612C235.936 62.9902 228.744 65.8238 221.923 69.4116C220.001 70.4217 221.703 73.333 223.624 72.3233Z" fill="#3F3D56"/>
<path d="M223.624 94.803C247.179 82.4219 275.385 79.722 300.995 86.75C308.296 88.7489 315.352 91.5545 322.033 95.115C323.947 96.1362 325.652 93.2264 323.735 92.2034C299.326 79.1787 270.026 76.1804 243.372 83.4409C235.936 85.4699 228.744 88.3035 221.923 91.8913C220.001 92.9013 221.703 95.8127 223.624 94.8029L223.624 94.803Z" fill="#3F3D56"/>
<path d="M324.56 116.077C324.577 115.787 324.507 115.499 324.359 115.25C324.211 115.001 323.991 114.802 323.729 114.679C304.175 104.44 282.005 100.287 260.071 102.755C259.934 102.766 259.807 102.788 259.659 102.799H259.653C259.518 102.811 259.384 102.831 259.251 102.86C246.206 104.361 233.55 108.262 221.923 114.365C221.67 114.516 221.46 114.731 221.314 114.987C221.168 115.244 221.092 115.534 221.092 115.829V157.765C221.096 158.023 221.159 158.276 221.276 158.507C221.393 158.737 221.56 158.937 221.766 159.093C221.972 159.249 222.21 159.356 222.463 159.406C222.716 159.456 222.978 159.448 223.227 159.382C223.744 159.234 224.262 159.091 224.79 158.953C236.544 155.771 248.611 153.884 260.776 153.324C261.034 153.313 261.293 153.302 261.562 153.291C271.47 152.865 281.396 153.222 291.248 154.358C291.454 154.37 291.66 154.392 291.864 154.424C292.37 154.479 292.888 154.54 293.394 154.606C293.597 154.628 293.79 154.65 293.977 154.683C295.947 154.931 297.9 155.211 299.859 155.514C302.687 155.965 305.516 156.468 308.344 157.022C308.52 157.055 308.702 157.099 308.883 157.132C313.423 158.034 317.94 159.08 322.436 160.235C322.686 160.3 322.948 160.307 323.201 160.255C323.454 160.204 323.693 160.096 323.898 159.939C324.104 159.782 324.271 159.581 324.388 159.35C324.504 159.119 324.567 158.865 324.57 158.606V116.143C324.572 116.12 324.568 116.098 324.56 116.077V116.077Z" fill="#3F3D56"/>
<path d="M262.715 105.042C261.48 104.437 260.064 104.312 258.742 104.693C258.158 104.911 257.623 105.244 257.169 105.671C256.715 106.099 256.35 106.612 256.096 107.181C255.638 108.273 255.344 109.427 255.225 110.605C255.155 111.068 255.15 111.653 255.616 111.869C255.785 111.93 255.968 111.944 256.144 111.91C256.321 111.875 256.484 111.792 256.617 111.671C256.857 111.434 257.056 111.157 257.203 110.853C258.012 109.595 259.124 108.561 260.438 107.847C261.752 107.132 263.225 106.761 264.721 106.766L265.965 107.262C264.986 106.38 263.893 105.633 262.715 105.042V105.042Z" fill="#FF6582"/>
<path d="M276.188 114.707C275.222 113.285 274.077 111.766 272.284 111.302C270.208 110.764 268.075 111.833 266.266 112.887C260.887 116.02 255.678 119.436 250.661 123.122L250.666 123.177L262.311 122.462C265.116 122.29 268.017 122.094 270.495 120.913C271.385 120.355 272.38 119.985 273.418 119.825C274.062 119.86 274.693 120.022 275.274 120.302C275.855 120.582 276.375 120.974 276.804 121.456C282.171 126.543 283.724 134.323 289.745 138.792C285.914 130.395 281.378 122.338 276.188 114.707V114.707Z" fill="white"/>
<path d="M261.564 153.29C261.295 153.301 261.036 153.313 260.778 153.324C258.901 152.65 256.979 152.054 255.034 151.537C253.775 151.2 252.494 150.896 251.213 150.638C249.763 150.323 248.302 150.076 246.841 149.862C244.059 149.457 241.255 149.221 238.445 149.154C238.424 149.156 238.402 149.154 238.382 149.148C238.361 149.141 238.342 149.13 238.327 149.116C238.311 149.102 238.298 149.084 238.289 149.064C238.28 149.045 238.276 149.024 238.276 149.002C238.276 148.981 238.28 148.96 238.289 148.94C238.298 148.92 238.311 148.903 238.327 148.889C238.342 148.874 238.361 148.864 238.382 148.857C238.402 148.85 238.424 148.848 238.445 148.85C238.804 148.85 239.164 148.862 239.513 148.884C242.329 148.988 245.136 149.262 247.92 149.705C249.37 149.941 250.82 150.222 252.258 150.537C253.562 150.829 254.866 151.155 256.147 151.514C257.979 152.031 259.785 152.623 261.564 153.29Z" fill="white"/>
<path d="M293.979 154.684C293.788 154.65 293.597 154.628 293.394 154.605C292.619 153.965 291.832 153.358 291.012 152.762C289.989 152.02 288.932 151.323 287.853 150.671C285.464 149.221 282.969 147.951 280.39 146.872C276.313 145.174 272.093 143.843 267.78 142.893C262.86 141.815 257.879 141.035 252.865 140.556C247.852 140.038 242.817 139.724 237.782 139.409C237.568 139.398 237.557 139.083 237.782 139.094C238.411 139.139 239.041 139.173 239.681 139.218C244.773 139.533 249.864 139.892 254.922 140.466C259.937 141.003 264.911 141.867 269.814 143.051C274 144.082 278.084 145.485 282.02 147.243C284.284 148.26 286.477 149.428 288.584 150.739C289.921 151.582 291.214 152.481 292.45 153.436C292.967 153.841 293.484 154.246 293.979 154.684Z" fill="white"/>
<path d="M291.866 154.425C291.661 154.392 291.455 154.37 291.248 154.358C291.012 154.167 290.764 153.987 290.517 153.807C288.787 152.569 286.982 151.439 285.111 150.424C283.412 149.501 281.668 148.664 279.885 147.918C275.809 146.215 271.589 144.883 267.274 143.939C262.354 142.861 257.373 142.08 252.359 141.601C247.347 141.084 242.311 140.769 237.276 140.454C237.063 140.432 237.063 140.128 237.276 140.14C237.917 140.185 238.546 140.218 239.176 140.263C244.267 140.578 249.358 140.938 254.416 141.511C259.431 142.048 264.406 142.912 269.308 144.096C273.494 145.126 277.579 146.529 281.514 148.288C282.998 148.963 284.448 149.693 285.864 150.491C287.964 151.645 289.971 152.96 291.866 154.425Z" fill="white"/>
<path d="M308.882 157.134C308.703 157.101 308.523 157.056 308.343 157.022C308.141 156.808 307.949 156.584 307.758 156.359C306.792 155.246 305.837 154.122 304.892 152.987C301.172 148.558 297.643 143.995 294.316 139.342C291.461 135.363 288.753 131.305 286.19 127.169C284.965 125.213 283.785 123.235 282.627 121.234C281.728 119.683 280.851 118.128 279.997 116.57C279.75 116.12 279.514 115.67 279.278 115.221C278.727 114.164 278.176 113.096 277.592 112.051C276.957 110.771 276.024 109.661 274.872 108.814C274.296 108.429 273.63 108.2 272.939 108.151C271.964 108.155 271.006 108.402 270.151 108.87C263.863 111.799 257.931 115.438 252.472 119.717C247.139 123.864 242.318 128.629 238.108 133.913C237.973 134.07 237.681 133.924 237.804 133.755C238.31 133.126 238.827 132.496 239.344 131.878C243.39 127.092 247.947 122.761 252.932 118.964C252.944 118.952 252.966 118.941 252.977 118.93C253.416 118.582 253.854 118.244 254.304 117.918C257.087 115.869 259.984 113.977 262.981 112.253C264.509 111.365 266.071 110.523 267.667 109.725C268.061 109.522 268.465 109.32 268.87 109.129C269.275 108.927 269.679 108.736 270.084 108.544C270.885 108.136 271.761 107.895 272.658 107.836C275.782 107.791 277.389 110.938 278.502 113.063C278.851 113.726 279.21 114.389 279.559 115.052C280.908 117.559 282.312 120.054 283.774 122.515C284.661 124.044 285.583 125.562 286.516 127.068C287.853 129.215 289.225 131.339 290.652 133.452C290.652 133.453 290.652 133.455 290.653 133.456C290.653 133.458 290.654 133.459 290.655 133.46C290.656 133.461 290.657 133.462 290.659 133.462C290.66 133.463 290.661 133.463 290.663 133.463H290.663C292.315 135.958 294.035 138.409 295.811 140.848C298.857 145.018 302.049 149.094 305.387 153.077C306.534 154.448 307.699 155.8 308.882 157.134Z" fill="white"/>
<path d="M268.784 107.494L268.473 107.63C267.761 106.427 266.762 105.419 265.567 104.695C264.371 103.971 263.015 103.554 261.62 103.481C257.018 103.154 252.976 106.22 252.609 110.316C252.459 112.003 252.948 113.684 253.977 115.028L253.688 115.199C252.616 113.799 252.108 112.048 252.263 110.292C252.646 106.026 256.855 102.833 261.647 103.173C263.101 103.25 264.512 103.684 265.757 104.438C267.002 105.192 268.042 106.241 268.784 107.494V107.494Z" fill="#FF6582"/>
<path d="M246.046 115.78C244.839 115.255 243.523 115.025 242.209 115.109C240.895 115.192 239.619 115.587 238.488 116.262C242.618 116.895 246.712 117.746 250.753 118.81C249.08 117.937 247.771 116.57 246.046 115.78Z" fill="white"/>
<path d="M238.465 116.258L238.01 116.587C238.164 116.472 238.324 116.364 238.488 116.262L238.465 116.258Z" fill="white"/>
<path d="M252.16 118.166C251.979 117.986 251.799 117.806 251.616 117.627C250.217 116.104 248.533 114.871 246.658 113.998C245.704 113.596 244.68 113.385 243.644 113.376C242.574 113.401 241.517 113.607 240.515 113.984C240.044 114.151 239.583 114.341 239.129 114.544C238.611 114.776 238.102 115.024 237.595 115.274C236.643 115.742 235.704 116.232 234.777 116.742C232.933 117.756 231.147 118.848 229.418 120.017C228.522 120.624 227.645 121.25 226.785 121.896C225.986 122.497 225.203 123.113 224.437 123.745C224.273 123.88 224.028 123.662 224.192 123.527C224.394 123.36 224.598 123.193 224.803 123.029C225.38 122.564 225.967 122.109 226.563 121.662C227.649 120.846 228.764 120.061 229.907 119.308C231.684 118.136 233.522 117.044 235.422 116.031C236.371 115.526 237.333 115.041 238.308 114.578C238.603 114.438 238.901 114.301 239.202 114.172C239.89 113.863 240.601 113.606 241.327 113.402C242.369 113.103 243.458 113.008 244.536 113.121C245.568 113.253 246.569 113.562 247.496 114.033C249.334 115.063 250.992 116.385 252.405 117.947C252.553 118.095 252.309 118.314 252.16 118.166Z" fill="white"/>
<path d="M84.2166 76.1731C109.551 68.0898 137.815 70.2298 161.816 81.6174C168.664 84.8498 175.132 88.8334 181.1 93.4949C182.788 94.8199 185.191 92.4498 183.484 91.1106C161.44 74.0116 133.741 65.8887 105.954 68.3741C98.2664 69.0621 90.6769 70.5869 83.3202 72.9215C81.2607 73.5786 82.141 76.8353 84.2165 76.173L84.2166 76.1731Z" fill="#3F3D56"/>
<path d="M84.2166 98.6527C109.551 90.5695 137.815 92.7095 161.816 104.097C168.664 107.329 175.132 111.313 181.1 115.975C182.788 117.3 185.191 114.93 183.484 113.59C161.44 96.4912 133.741 88.3684 105.954 90.8538C98.2664 91.5418 90.6769 93.0666 83.3202 95.4012C81.2607 96.0583 82.141 99.315 84.2165 98.6527L84.2166 98.6527Z" fill="#3F3D56"/>
<path d="M84.2166 121.132C109.551 113.049 137.815 115.189 161.816 126.577C168.664 129.809 175.132 133.793 181.1 138.454C182.788 139.779 185.191 137.409 183.484 136.07C161.44 118.971 133.741 110.848 105.954 113.334C98.2664 114.021 90.6769 115.546 83.3202 117.881C81.2607 118.538 82.141 121.795 84.2165 121.132L84.2166 121.132Z" fill="#3F3D56"/>
<path d="M84.2166 143.612C109.551 135.529 137.815 137.669 161.816 149.057C168.664 152.289 175.132 156.272 181.1 160.934C182.788 162.259 185.191 159.889 183.484 158.55C161.44 141.451 133.741 133.328 105.954 135.813C98.2664 136.501 90.6769 138.026 83.3202 140.361C81.2607 141.018 82.141 144.274 84.2165 143.612L84.2166 143.612Z" fill="#3F3D56"/>
<path d="M84.2166 166.092C109.551 158.009 137.815 160.149 161.816 171.536C168.664 174.769 175.132 178.752 181.1 183.414C182.788 184.739 185.191 182.369 183.484 181.029C161.44 163.93 133.741 155.808 105.954 158.293C98.2664 158.981 90.6769 160.506 83.3202 162.84C81.2607 163.497 82.141 166.754 84.2165 166.092H84.2166Z" fill="#3F3D56"/>
<path d="M175.494 26.6256V80.5311C175.494 81.6024 173.622 82.4991 171.098 82.7451C171.077 82.7438 171.055 82.7465 171.035 82.753C170.614 82.7848 170.17 82.8086 169.717 82.8086C168.326 82.8341 166.942 82.6083 165.631 82.142C165.512 82.0944 165.393 82.0389 165.274 81.9912C165.163 81.9278 165.044 81.8722 164.933 81.8087C164.306 81.4358 163.941 80.9993 163.941 80.5311V21.9755C167.912 23.2071 171.777 24.7624 175.494 26.6256V26.6256Z" fill="#6C63FF"/>
<path d="M199.711 39.1282H198.06V231.352H199.711V39.1282Z" fill="#E6E6E6"/>
<path d="M379.221 170.719C380.392 170.612 381.524 170.249 382.54 169.657C383.555 169.065 384.428 168.257 385.098 167.291C385.767 166.325 386.216 165.224 386.414 164.065C386.612 162.906 386.553 161.718 386.242 160.585L420.505 144.59L441.132 111.223L424.918 104.676L411.003 131.565L375.783 155.036C373.913 155.684 372.347 156.996 371.38 158.723C370.413 160.45 370.113 162.471 370.536 164.404C370.96 166.338 372.078 168.048 373.679 169.212C375.28 170.376 377.251 170.912 379.221 170.719V170.719Z" fill="#FFB6B6"/>
<path d="M453.855 79.2571C453.855 79.2571 457.893 80.5752 453.461 88.4077C449.913 94.6782 432.63 130.797 425.576 137.889C426.318 139.078 426.643 140.481 426.501 141.875C426.358 143.27 425.756 144.578 424.788 145.593L408.503 132.669C408.192 127.969 411.302 127.502 413.145 127.661L416.892 114.382L429.959 81.6256L450.954 78.2525L453.855 79.2571Z" fill="#6C63FF"/>
<path d="M454.207 17.8613C454.977 14.748 460.563 12.4493 450.994 8.10282C448.672 7.04797 448.769 3.41529 446.804 1.78844C444.84 0.161598 441.963 -0.592628 439.68 0.544474C437.641 1.5599 436.493 3.85785 436.248 6.12239C436.13 8.40159 436.393 10.6844 437.026 12.8771L436.841 13.1481C440.631 16.0486 444.421 18.9491 448.212 21.8494C449.604 22.9153 451.425 24.0313 452.986 23.2316C454.753 22.3262 453.73 19.7888 454.207 17.8613Z" fill="#2F2E41"/>
</g>
<defs>
<clipPath id="clip0_5_456">
<rect width="531" height="406" fill="white"/>
</clipPath>
</defs>
</svg>
