<svg width="616" height="520" viewBox="0 0 616 520" fill="none" xmlns="http://www.w3.org/2000/svg">
<g clip-path="url(#clip0_4_442)">
<path d="M501.683 250.971C501.683 258.278 501.376 265.511 500.762 272.669C500.279 278.257 499.619 283.795 498.783 289.283C497.895 295.093 496.806 300.834 495.517 306.505V306.511C494.674 310.243 493.749 313.945 492.741 317.616C489.815 328.287 486.177 338.75 481.851 348.935C480.911 351.15 479.939 353.351 478.938 355.536C475.148 363.811 470.904 371.871 466.226 379.679C453.106 401.604 436.73 421.405 417.658 438.402C415.594 440.238 413.501 442.045 411.38 443.82C366.35 481.456 309.516 502.032 250.842 501.942C112.304 501.942 0 389.58 0 250.971C0 112.362 112.304 -0.0001164 250.842 -0.0001164C307.496 -0.0894929 362.497 19.0971 406.814 54.4096C408.892 56.0566 410.943 57.7406 412.968 59.4617C422.85 67.8469 432.072 76.9802 440.554 86.781H440.56C480.064 132.342 501.773 190.656 501.683 250.971V250.971Z" fill="#F2F2F2"/>
<path d="M74.0481 294.323C50.1525 280.094 32.117 253.501 34.4585 225.778C56.3049 246.698 84.8431 259.212 115.024 261.107C126.666 261.795 139.686 261.348 148.256 269.262C153.589 274.186 156.071 281.6 156.478 288.849C156.885 296.098 155.434 303.308 153.99 310.423L154.487 312.166C126.679 312.271 97.9437 308.553 74.0481 294.323Z" fill="#E6E6E6"/>
<path d="M35.0412 225.748C44.6156 246.69 60.5417 264.081 80.5574 275.451C84.8603 277.861 89.4349 279.931 94.2963 280.891C99.0419 281.791 103.942 281.402 108.487 279.766C112.755 278.326 116.954 276.358 121.498 275.981C126.288 275.584 130.722 277.433 134.205 280.671C138.468 284.633 141.053 289.891 143.403 295.12C146.012 300.927 148.63 307 153.632 311.175C154.238 311.681 153.418 312.593 152.813 312.088C144.11 304.822 142.689 292.656 135.733 284.099C132.487 280.107 128.019 277.069 122.711 277.149C118.069 277.219 113.737 279.244 109.428 280.74C104.903 282.31 100.37 283.048 95.5933 282.357C90.7068 281.65 86.0417 279.755 81.6961 277.466C71.8805 272.201 62.9533 265.425 55.2414 257.386C46.3891 248.26 39.1623 237.686 33.8738 226.122C33.5467 225.406 34.7163 225.037 35.0412 225.748H35.0412Z" fill="white"/>
<path d="M73.897 272.17C71.5345 275.271 68.1471 277.43 64.3399 278.263C60.5327 279.096 56.5536 278.548 53.1131 276.716C52.4182 276.343 52.9649 275.245 53.6607 275.619C56.8613 277.33 60.5679 277.841 64.1116 277.058C67.6553 276.275 70.8026 274.251 72.9854 271.35C73.4605 270.72 74.3694 271.544 73.897 272.17L73.897 272.17Z" fill="white"/>
<path d="M106.419 280.782C105.424 272.873 101.487 265.63 95.3927 260.497C94.7885 259.989 95.6084 259.078 96.2119 259.585C102.544 264.939 106.626 272.484 107.642 280.716C107.739 281.501 106.514 281.562 106.419 280.782V280.782Z" fill="white"/>
<path d="M47.9089 247.685C49.0729 246.676 49.9682 245.393 50.5143 243.952C51.0604 242.511 51.2402 240.957 51.0376 239.429C50.9313 238.646 52.1559 238.586 52.2614 239.364C52.4774 241.053 52.2767 242.769 51.6769 244.362C51.0771 245.956 50.0964 247.378 48.8205 248.504C48.7091 248.621 48.5577 248.69 48.397 248.699C48.2362 248.707 48.0782 248.654 47.9551 248.551C47.835 248.442 47.7627 248.289 47.7541 248.127C47.7454 247.965 47.801 247.806 47.9089 247.685V247.685Z" fill="white"/>
<path d="M111.807 172.069C111.887 172.556 111.967 173.043 112.057 173.535C113.17 180.078 114.812 186.519 116.967 192.796C117.126 193.284 117.294 193.776 117.467 194.258C122.821 209.325 130.924 223.266 141.365 235.373C145.524 240.187 150.043 244.677 154.883 248.805C161.567 254.506 169.268 260.154 173.554 267.514C174.009 268.277 174.417 269.068 174.775 269.881L156.573 311.425C156.485 311.498 156.405 311.577 156.316 311.651L155.665 313.343C155.401 313.147 155.131 312.939 154.866 312.743C154.712 312.631 154.562 312.509 154.409 312.396C154.307 312.318 154.206 312.239 154.11 312.174C154.076 312.149 154.043 312.122 154.018 312.101C153.923 312.036 153.84 311.966 153.754 311.905C152.241 310.744 150.733 309.571 149.231 308.385C149.222 308.381 149.222 308.381 149.217 308.367C137.795 299.301 127.03 289.201 118.139 277.787C117.872 277.444 117.595 277.097 117.336 276.734C113.357 271.567 109.807 266.084 106.721 260.338C105.041 257.186 103.522 253.952 102.169 250.646C98.6899 242.099 96.5763 233.058 95.9055 223.853C94.5709 205.505 99.1165 186.933 110.896 173.116C111.198 172.763 111.496 172.418 111.807 172.069Z" fill="#E6E6E6"/>
<path d="M112.293 172.393C107.336 194.882 109.586 218.361 118.726 239.497C120.711 244.013 123.118 248.421 126.422 252.116C129.67 255.693 133.816 258.334 138.429 259.766C142.704 261.187 147.241 262.146 151.096 264.582C155.159 267.149 157.587 271.297 158.42 275.981C159.439 281.711 158.339 287.467 157.068 293.058C155.657 299.266 154.093 305.692 155.574 312.039C155.754 312.808 154.55 313.042 154.371 312.274C151.795 301.231 157.982 290.66 157.576 279.638C157.387 274.495 155.648 269.378 151.361 266.244C147.613 263.504 142.935 262.512 138.594 261.11C134.037 259.638 129.974 257.497 126.575 254.068C123.099 250.56 120.515 246.236 118.423 241.791C113.753 231.675 110.703 220.887 109.383 209.823C107.807 197.204 108.399 184.408 111.136 171.989C111.305 171.22 112.461 171.63 112.293 172.393V172.393Z" fill="white"/>
<path d="M115.383 232.864C111.63 233.917 107.626 233.601 104.085 231.973C100.544 230.344 97.6967 227.51 96.0518 223.975C95.7215 223.258 96.8186 222.711 97.1494 223.428C98.675 226.723 101.327 229.363 104.628 230.873C107.928 232.382 111.66 232.662 115.148 231.661C115.906 231.444 116.137 232.649 115.383 232.864H115.383Z" fill="white"/>
<path d="M136.167 259.331C140.132 252.418 141.347 244.263 139.57 236.493C139.393 235.724 140.596 235.49 140.772 236.258C142.607 244.347 141.325 252.831 137.183 260.016C136.788 260.7 135.774 260.012 136.167 259.331Z" fill="white"/>
<path d="M109.367 197.66C110.903 197.555 112.39 197.07 113.693 196.249C114.996 195.427 116.075 194.295 116.833 192.953C117.219 192.263 118.233 192.953 117.849 193.638C117.005 195.116 115.812 196.366 114.375 197.277C112.937 198.187 111.298 198.732 109.601 198.863C109.442 198.889 109.28 198.853 109.146 198.763C109.013 198.673 108.918 198.536 108.882 198.379C108.852 198.219 108.886 198.054 108.977 197.92C109.067 197.785 109.207 197.692 109.367 197.66V197.66Z" fill="white"/>
<path d="M173.76 58.1678L204.462 417.757L143.058 422.376V62.7428C150.375 57.8987 160.878 57.1409 173.76 58.1678Z" fill="#CCCCCC"/>
<path d="M325.31 58.1678L294.608 417.757L356.012 422.376V62.7428C348.695 57.8987 338.192 57.1409 325.31 58.1678Z" fill="#CCCCCC"/>
<path d="M346.818 437.239H151.599C148.469 437.235 145.468 435.989 143.254 433.775C141.041 431.56 139.795 428.557 139.792 425.425V68.0202C139.796 64.8883 141.041 61.8856 143.254 59.671C145.468 57.4564 148.469 56.2107 151.599 56.2071H346.818C349.949 56.2107 352.95 57.4564 355.163 59.671C357.377 61.8856 358.622 64.8883 358.625 68.0202V425.425C358.622 428.557 357.377 431.56 355.163 433.775C352.95 435.989 349.949 437.235 346.818 437.239V437.239ZM151.599 60.1285C149.508 60.1308 147.503 60.963 146.024 62.4425C144.545 63.922 143.714 65.9279 143.711 68.0202V425.425C143.714 427.518 144.545 429.524 146.024 431.003C147.503 432.483 149.508 433.315 151.599 433.317H346.818C348.909 433.315 350.914 432.483 352.393 431.003C353.872 429.524 354.704 427.518 354.706 425.425V68.0202C354.704 65.9279 353.872 63.922 352.393 62.4425C350.914 60.963 348.909 60.1308 346.818 60.1285L151.599 60.1285Z" fill="#CCCCCC"/>
<path d="M356.666 115.682H141.752V119.603H356.666V115.682Z" fill="#CCCCCC"/>
<path d="M356.666 181.039H141.752V184.96H356.666V181.039Z" fill="#CCCCCC"/>
<path d="M211.493 58.1678H207.574V236.593H211.493V58.1678Z" fill="#CCCCCC"/>
<path d="M290.843 58.1678H286.924V236.593H290.843V58.1678Z" fill="#CCCCCC"/>
<path d="M381.162 448.023H123.788C119.11 448.023 114.624 446.163 111.316 442.854C108.009 439.545 106.15 435.056 106.15 430.376C106.15 425.696 108.009 421.208 111.316 417.898C114.624 414.589 119.11 412.73 123.788 412.73H381.162C385.839 412.73 390.326 414.589 393.633 417.898C396.941 421.208 398.799 425.696 398.799 430.376C398.799 435.056 396.941 439.545 393.633 442.854C390.326 446.163 385.839 448.023 381.162 448.023V448.023Z" fill="#CCCCCC"/>
<path d="M356.665 227.443H143.058V240.514H356.665V227.443Z" fill="#CCCCCC"/>
<path d="M212.102 269.043L211.831 268.912C197.269 261.874 178.2 261.88 150 268.935L149.699 269.01L149.608 268.713C146.625 258.926 143.246 247.842 149.594 242.388C149.683 226.385 163.714 213.391 180.947 213.391C198.176 213.391 212.205 226.378 212.299 242.377C221.743 249.602 217.242 260.277 212.254 268.783L212.102 269.043Z" fill="#2F2E41"/>
<path d="M301.602 234.776C301.341 236.072 300.799 237.296 300.014 238.361C299.229 239.425 298.22 240.305 297.059 240.937C295.898 241.569 294.612 241.939 293.292 242.02C291.973 242.102 290.651 241.892 289.421 241.408L237.961 293.147L233.37 277.082L284.479 229.034C285.431 227.021 287.087 225.426 289.135 224.553C291.182 223.68 293.479 223.588 295.589 224.296C297.7 225.004 299.478 226.461 300.586 228.393C301.694 230.324 302.056 232.595 301.602 234.776L301.602 234.776Z" fill="#FFB6B6"/>
<path d="M174.419 284.586C174.419 284.586 169.75 295.171 181.27 301.7C192.79 308.228 233.054 299.209 239.587 297.949C246.12 296.69 270.521 260.155 270.521 260.155L267.07 242.237L234.709 270.344L174.419 284.586Z" fill="#6C63FF"/>
<path d="M165.921 343.125L166.575 355.542C166.575 355.542 164.647 366.542 166.232 368.916C167.806 371.278 210.75 371.576 210.75 371.576C210.75 371.576 213.588 356.272 216.032 342.876L165.921 343.125Z" fill="#FFB6B6"/>
<path d="M289.392 507.315L298.37 505.501L295.8 469.219L282.55 471.896L289.392 507.315Z" fill="#FFB6B6"/>
<path d="M302.252 460.099L310.598 456.345L299.771 421.629L287.452 427.172L302.252 460.099Z" fill="#FFB6B6"/>
<path d="M309.522 440.539L293.807 449.442L255.049 387.129C227.841 405.469 201.235 414.252 174.413 418.939C165.345 420.554 156.1 419.736 154.359 410.501C154.277 410.069 154.213 409.635 154.164 409.199C153.093 399.112 165.634 386.183 167.228 373.842L201.549 371.781L205.781 377.21L245.473 352.795C253.455 347.885 263.953 350.541 268.922 358.727C269.184 359.159 269.427 359.602 269.652 360.056L309.522 440.539Z" fill="#2F2E41"/>
<path d="M299.903 482.457L281.921 484.129L249.316 417.412C216.984 422.976 186.481 424.758 160.098 418.028C151.165 415.781 145.705 406.552 147.902 397.416C148.005 396.989 148.124 396.566 148.258 396.148C151.416 386.509 159.681 379.689 166.193 369.088L213.76 369.811L208.447 388.151L254.655 382.169C263.947 380.966 272.434 387.695 273.61 397.2C273.672 397.702 273.712 398.206 273.732 398.711L299.903 482.457Z" fill="#2F2E41"/>
<path d="M184.494 259.557C195.161 259.557 203.809 250.905 203.809 240.233C203.809 229.56 195.161 220.908 184.494 220.908C173.827 220.908 165.18 229.56 165.18 240.233C165.18 250.905 173.827 259.557 184.494 259.557Z" fill="#FFB6B6"/>
<path d="M173.171 266.534L190.881 268.618C191.628 268.706 192.328 269.025 192.886 269.53C193.443 270.036 193.828 270.702 193.989 271.437L196.805 284.331L214.362 305.017C214.362 305.017 220.667 316.844 218.302 330.248C215.938 343.652 214.899 353.612 214.899 353.612C214.899 353.612 167.804 371.279 166.228 368.914C164.651 366.548 164.14 355.804 164.14 355.804L157.836 285.631C157.836 285.631 164.928 273.804 168.868 273.804C171.411 273.718 171.085 267.992 173.171 266.534Z" fill="#6C63FF"/>
<path d="M215.378 357.926C217.862 357.926 219.875 355.509 219.875 352.527C219.875 349.546 217.862 347.129 215.378 347.129C212.895 347.129 210.881 349.546 210.881 352.527C210.881 355.509 212.895 357.926 215.378 357.926Z" fill="#6C63FF"/>
<path d="M284.936 497.973L298.624 491.11L301.204 497.132L318.512 500.632C319.367 500.805 320.144 501.247 320.73 501.893C321.317 502.539 321.681 503.356 321.771 504.224C321.86 505.092 321.67 505.965 321.228 506.718C320.786 507.47 320.115 508.061 319.313 508.405L302.59 515.577L297.156 510.857L298.582 517.296L292.276 520L284.936 497.973Z" fill="#2F2E41"/>
<path d="M298.335 457.211L311.899 450.108L314.585 456.083L331.952 459.279C332.81 459.436 333.595 459.864 334.192 460.5C334.79 461.136 335.168 461.946 335.273 462.812C335.378 463.678 335.203 464.555 334.774 465.315C334.345 466.075 333.685 466.678 332.89 467.036L316.295 474.501L310.778 469.878L312.318 476.29L306.061 479.105L298.335 457.211Z" fill="#2F2E41"/>
<path d="M173.459 234.171C168.356 234.179 163.376 232.607 159.202 229.671L159.062 229.573V229.403C159.068 224.465 161.031 219.73 164.521 216.238C168.012 212.746 172.744 210.782 177.68 210.776H185.518C190.454 210.782 195.186 212.746 198.676 216.238C202.167 219.73 204.13 224.465 204.135 229.403C204.13 230.533 203.684 231.617 202.892 232.423C202.1 233.229 201.025 233.694 199.896 233.719L173.9 234.167C173.753 234.17 173.605 234.171 173.459 234.171Z" fill="#2F2E41"/>
<path d="M205.442 225.826C207.942 224.382 208.359 220.424 206.375 216.985C204.391 213.547 200.756 211.93 198.256 213.374C195.757 214.817 195.339 218.775 197.323 222.214C199.308 225.653 202.943 227.27 205.442 225.826Z" fill="#2F2E41"/>
<path d="M166.35 221.99C169.157 219.182 169.777 215.251 167.736 213.209C165.695 211.167 161.766 211.788 158.96 214.595C156.154 217.403 155.533 221.334 157.574 223.376C159.615 225.418 163.544 224.797 166.35 221.99Z" fill="#2F2E41"/>
<path d="M337.29 398.678H318.011C317.576 398.677 317.146 398.771 316.751 398.954C316.357 399.136 316.007 399.403 315.726 399.735C315.014 399.604 314.283 399.644 313.59 399.851C312.897 400.059 312.263 400.427 311.741 400.927C311.218 401.427 310.821 402.043 310.583 402.726C310.344 403.409 310.271 404.139 310.37 404.855C310.468 405.572 310.734 406.255 311.148 406.849C311.561 407.442 312.109 407.929 312.747 408.27C313.385 408.61 314.094 408.795 314.817 408.808C315.54 408.821 316.255 408.662 316.905 408.345L318.504 413.543C318.693 414.159 319.075 414.699 319.594 415.081C320.112 415.464 320.739 415.671 321.383 415.671H333.918C334.562 415.671 335.189 415.464 335.707 415.081C336.225 414.698 336.607 414.159 336.796 413.543L340.169 402.578C340.307 402.128 340.338 401.651 340.259 401.186C340.18 400.721 339.993 400.281 339.713 399.901C339.433 399.522 339.067 399.214 338.647 399.001C338.226 398.789 337.761 398.678 337.29 398.678V398.678ZM314.912 407.501C314.046 407.501 313.215 407.157 312.603 406.544C311.99 405.931 311.646 405.1 311.646 404.233C311.646 403.367 311.99 402.536 312.603 401.923C313.215 401.31 314.046 400.966 314.912 400.966C314.972 400.966 315.027 400.98 315.086 400.983C314.956 401.509 314.972 402.061 315.132 402.578L316.511 407.065C316.025 407.347 315.474 407.498 314.912 407.501V407.501Z" fill="#3F3D56"/>
<path d="M251.203 384.491C249.886 384.612 248.559 384.444 247.314 383.997C246.07 383.55 244.939 382.836 244 381.904C243.062 380.973 242.339 379.846 241.882 378.605C241.426 377.363 241.247 376.037 241.358 374.719L177.055 340.242L191.119 331.232L251.787 366.432C253.988 366.766 255.99 367.896 257.413 369.608C258.837 371.32 259.584 373.495 259.512 375.721C259.44 377.947 258.554 380.069 257.023 381.685C255.491 383.302 253.42 384.3 251.203 384.491V384.491Z" fill="#FFB6B6"/>
<path d="M167.02 276.883C167.02 276.883 155.545 275.445 152.6 288.36C149.655 301.274 169.843 337.277 172.923 343.178C176.003 349.078 217.985 361.982 217.985 361.982L234.151 353.535L197.955 330.582L167.02 276.883Z" fill="#6C63FF"/>
<path d="M247.902 223.521H251.822C253.727 223.521 255.555 224.279 256.902 225.627C258.25 226.975 259.007 228.804 259.007 230.71H240.717C240.717 228.804 241.474 226.975 242.821 225.627C244.169 224.279 245.996 223.521 247.902 223.521V223.521Z" fill="#CCCCCC"/>
<path d="M123.619 89.3859C145.064 89.3859 162.448 71.9924 162.448 50.5365C162.448 29.0805 145.064 11.687 123.619 11.687C102.174 11.687 84.7896 29.0805 84.7896 50.5365C84.7896 71.9924 102.174 89.3859 123.619 89.3859Z" fill="#FF6584"/>
<path d="M242.505 48.5119C232.229 37.7264 220.295 27.8872 206.166 22.6877C202.231 21.2333 198.15 20.2073 193.995 19.6275C193.961 19.623 193.93 19.6297 193.896 19.627C193.829 19.6096 193.76 19.5961 193.691 19.5867C187.88 18.846 181.981 19.2023 176.301 20.6371C173.523 21.3346 170.813 22.2791 168.203 23.4594C165.585 24.7376 163.047 26.1764 160.605 27.7675C155.437 30.8627 149.747 32.9866 143.816 34.0343C140.838 34.5706 137.823 34.8668 134.798 34.9198C132.174 34.9725 129.699 35.0637 127.212 36.0124C124.556 37.0118 122.17 38.6184 120.244 40.7042C118.319 42.79 116.908 45.2972 116.123 48.0257C116.062 48.2687 116.08 48.5246 116.175 48.7565C116.269 48.9885 116.435 49.1844 116.648 49.3161C117.32 49.7981 117.976 50.3449 118.683 50.7743C119.311 51.0623 119.983 51.2455 120.671 51.3168C121.794 51.554 122.919 51.7843 124.046 52.0076C128.195 52.8303 132.363 53.5585 136.547 54.1923C145.014 55.4747 153.526 56.378 162.085 56.9023C179.229 57.9413 196.433 57.424 213.484 55.3567C223.067 54.1954 232.585 52.5483 242.001 50.4217C242.192 50.366 242.365 50.2619 242.504 50.1195C242.642 49.9772 242.742 49.8014 242.792 49.6092C242.843 49.4171 242.843 49.2151 242.793 49.0228C242.743 48.8306 242.644 48.6546 242.505 48.5119V48.5119Z" fill="#E6E6E6"/>
<path d="M125.462 74.487C121.526 73.0325 117.446 72.0065 113.29 71.4268C113.257 71.4222 113.225 71.429 113.192 71.4263C113.125 71.4089 113.056 71.3954 112.987 71.386C107.175 70.6452 101.277 71.0015 95.5964 72.4364C92.8186 73.1338 90.1088 74.0783 87.4992 75.2586C84.8803 76.5369 82.3428 77.9757 79.9012 79.5668C74.7331 82.662 69.043 84.7858 63.1114 85.8336C60.1341 86.3699 57.1185 86.666 54.0938 86.7191C51.4693 86.7718 48.9942 86.863 46.5076 87.8117C43.8514 88.811 41.4655 90.4177 39.5401 92.5035C37.6148 94.5892 36.2033 97.0964 35.4184 99.8249C35.3579 100.068 35.3762 100.324 35.4705 100.556C35.5648 100.788 35.7304 100.984 35.9433 101.115C36.6159 101.597 37.2717 102.144 37.9784 102.574C38.6071 102.861 39.2785 103.045 39.9663 103.116C41.0898 103.353 42.2149 103.583 43.3413 103.807C47.4912 104.629 51.6582 105.358 55.8426 105.991C64.3094 107.274 72.822 108.177 81.3803 108.701C98.525 109.741 115.729 109.223 132.78 107.156C142.363 105.995 151.881 104.347 161.297 102.221C161.488 102.165 161.661 102.061 161.799 101.919C161.938 101.776 162.037 101.601 162.088 101.408C162.139 101.216 162.139 101.014 162.089 100.822C162.038 100.63 161.939 100.454 161.801 100.311C151.525 89.5257 139.59 79.6864 125.462 74.487Z" fill="#E6E6E6"/>
<path d="M405.477 364.104L375.616 324.856L352.056 338.185L401.983 397.504L405.477 364.104Z" fill="#3F3D56"/>
<path d="M474.261 300.303C474.924 316.75 477.471 333.068 481.851 348.935C480.911 351.15 479.94 353.351 478.938 355.536C475.148 363.811 470.904 371.871 466.226 379.679C453.107 401.604 436.73 421.405 417.658 438.402C415.594 440.239 413.501 442.045 411.38 443.82C399.289 427.141 392.763 408.736 390.183 389.796C389.856 387.391 389.589 384.96 389.386 382.541V382.528C388.891 376.651 388.731 370.751 388.909 364.856C388.916 364.385 388.929 363.908 388.948 363.431C389.177 357.131 389.745 350.817 390.601 344.562V344.556C390.699 343.837 390.797 343.118 390.908 342.399C391.222 340.242 391.574 338.085 391.96 335.942C394.203 323.578 397.333 311.392 401.327 299.479V299.473C401.438 299.126 401.549 298.786 401.673 298.446C402.105 297.152 402.542 295.871 402.993 294.59C403.021 294.49 403.056 294.392 403.097 294.296C403.679 292.623 404.273 290.963 404.881 289.316C405.044 288.859 405.214 288.401 405.39 287.944C406.076 286.107 406.775 284.284 407.487 282.486C407.709 281.911 407.938 281.336 408.167 280.767C408.343 280.33 408.513 279.892 408.696 279.46V279.454C409.734 276.885 410.786 274.367 411.851 271.898C414.836 264.958 417.906 258.428 420.898 252.409L420.905 252.402C433.323 227.482 444.61 211.299 444.61 211.299L486.999 225.024C481.943 233.998 478.03 247.233 475.887 262.846C474.236 275.257 473.692 287.789 474.261 300.296L474.261 300.303Z" fill="#3F3D56"/>
<path d="M403.809 296.309C403.561 295.728 403.28 295.159 402.993 294.59C401.503 291.704 399.584 289.06 397.303 286.748C396.964 286.401 396.611 286.055 396.245 285.728C392.31 282.102 387.525 279.527 382.333 278.24C377.14 276.954 371.707 276.998 366.536 278.369L366.51 278.382L366.314 278.434L366.36 278.656C366.556 279.692 366.84 280.709 367.209 281.695C367.307 281.963 367.418 282.218 367.529 282.473C367.575 282.591 367.633 282.695 367.686 282.813C367.686 282.813 367.679 282.82 367.692 282.82C367.692 282.826 367.699 282.833 367.699 282.839C367.823 283.081 367.94 283.329 368.071 283.565C367.803 283.31 367.548 283.048 367.3 282.78C367.059 282.532 366.836 282.271 366.614 282.009C365.853 281.121 365.165 280.172 364.557 279.173L364.452 278.996L364.269 279.068C361.804 279.923 359.453 281.075 357.267 282.499L357.031 282.656C355.362 283.753 353.482 284.486 351.511 284.808C349.54 285.13 347.524 285.033 345.593 284.525C342.549 283.74 339.375 283.597 336.272 284.104C333.17 284.612 330.206 285.759 327.571 287.473C325.825 288.612 324.246 289.989 322.88 291.564C322.763 291.702 322.645 291.845 322.528 291.983C322.279 292.283 322.044 292.591 321.816 292.904C319.36 296.188 317.853 300.083 317.459 304.165L317.445 304.316L317.57 304.401C319.78 305.916 322.28 306.958 324.912 307.459C323.258 307.69 321.584 307.732 319.921 307.583H319.915C319.16 307.521 318.41 307.416 317.668 307.27L317.53 307.244H317.524L317.354 307.211L317.38 307.525C317.575 311.518 318.831 315.387 321.019 318.733L321.084 318.825C321.108 318.858 321.13 318.893 321.149 318.929C322.076 320.348 322.847 321.862 323.449 323.446C324.976 327.381 325.312 331.679 324.415 335.805C323.401 340.217 323.738 344.833 325.383 349.051C327.029 353.268 329.905 356.893 333.639 359.451C336.919 361.708 340.741 363.051 344.711 363.34C345.254 363.385 345.802 363.411 346.351 363.411C349.492 363.421 352.601 362.773 355.477 361.51L355.581 361.47L355.607 361.353C356.16 359.567 356.937 357.858 357.92 356.268C357.598 357.521 357.436 358.81 357.436 360.104V360.536L357.809 360.32C358.129 360.131 358.455 359.928 358.749 359.738C360.514 358.586 362.112 357.196 363.498 355.608C364.041 354.98 364.589 354.373 365.164 353.765L365.171 353.758C366.288 352.569 367.47 351.405 368.698 350.294C371.311 347.947 374.107 345.811 377.06 343.909C380.01 342.013 383.095 340.336 386.29 338.89H386.296C386.656 338.72 387.021 338.556 387.381 338.399C388.971 337.706 390.503 336.884 391.96 335.942C392.012 335.909 392.058 335.883 392.104 335.85C398.418 331.714 403.061 325.469 405.204 318.228C407.348 310.987 406.854 303.22 403.809 296.309L403.809 296.309Z" fill="#6C63FF"/>
<path opacity="0.15" d="M325.492 345.084C325.313 345.879 325.178 346.683 325.087 347.492C323.871 343.647 323.695 339.548 324.576 335.612C324.712 335.01 324.814 334.401 324.894 333.788C326.101 337.432 326.307 341.333 325.492 345.084Z" fill="black"/>
<path opacity="0.15" d="M325.986 316.734C324.051 317.003 322.089 317.012 320.151 316.762C319.644 315.804 319.206 314.812 318.84 313.791C320.997 315.248 323.429 316.249 325.986 316.734V316.734Z" fill="black"/>
<path opacity="0.15" d="M319.996 307.373C319.282 309.201 318.807 311.113 318.584 313.063C317.988 311.206 317.636 309.28 317.537 307.332L317.521 307.018L317.83 307.078C318.546 307.213 319.269 307.311 319.996 307.373Z" fill="black"/>
<path opacity="0.15" d="M327.739 287.279C330.372 285.562 333.333 284.413 336.435 283.905C339.536 283.397 342.709 283.541 345.752 284.328C347.683 284.839 349.701 284.936 351.673 284.615C353.644 284.293 355.526 283.559 357.196 282.461L357.432 282.306C359.616 280.878 361.966 279.723 364.431 278.866L364.619 278.801L364.722 278.972C365.696 280.583 366.877 282.061 368.233 283.367C367.409 281.831 366.832 280.174 366.523 278.458L366.479 278.232L366.702 278.173C371.552 276.889 376.637 276.77 381.541 277.826C386.446 278.882 391.032 281.084 394.924 284.251C398.817 287.418 401.906 291.461 403.939 296.049C405.972 300.638 406.893 305.643 406.625 310.656C405.596 306.569 403.767 302.728 401.244 299.353C398.72 295.979 395.552 293.14 391.924 291C388.296 288.859 384.279 287.461 380.107 286.885C375.934 286.309 371.689 286.567 367.617 287.645L367.394 287.704L367.439 287.93C367.747 289.646 368.325 291.303 369.149 292.839C367.792 291.533 366.611 290.055 365.637 288.444L365.534 288.273L365.346 288.339C362.882 289.195 360.531 290.35 358.347 291.778L358.111 291.933C356.442 293.032 354.56 293.765 352.588 294.087C350.616 294.408 348.598 294.311 346.667 293.8C341.61 292.487 336.254 292.97 331.513 295.166C326.772 297.362 322.94 301.135 320.668 305.843C319.657 305.356 318.677 304.809 317.733 304.202L317.605 304.121L317.62 303.97C317.945 300.606 319.024 297.359 320.776 294.469C322.527 291.579 324.907 289.122 327.739 287.279V287.279Z" fill="black"/>
<path d="M570.586 120.283L569.966 119.871L569.515 120.46C566.027 124.854 563.252 129.77 561.291 135.028C561.561 128.971 562.62 122.975 564.44 117.192L564.636 116.584L564.074 116.264C556.765 112.123 548.977 108.892 540.884 106.643L540.002 106.408C533.799 104.705 528.025 101.713 523.056 97.6276C518.087 93.542 514.034 88.4543 511.162 82.6963C504.488 69.4814 493.945 58.6173 480.939 51.5535C467.933 44.4897 453.084 41.5622 438.372 43.1618H438.365C438.209 43.1748 438.045 43.1944 437.889 43.2141C437.621 43.2402 437.359 43.2729 437.098 43.3056C436.563 43.3774 436.04 43.4493 435.517 43.5278C435.073 43.5931 434.622 43.665 434.178 43.7435C433.943 43.7761 433.714 43.8153 433.486 43.8611C433.257 43.9003 433.022 43.9395 432.793 43.9853H432.787C428.401 44.8153 424.102 46.0515 419.944 47.6779H419.938V47.6844L418.886 48.0962C417.802 48.5406 416.726 49.0112 415.659 49.5079C415.417 49.619 415.182 49.7367 414.941 49.8478C414.875 49.8804 414.803 49.9131 414.738 49.9523C414.052 50.2791 413.373 50.619 412.7 50.9784C412.602 51.0242 412.504 51.0765 412.406 51.1288L411.779 51.4621C410.401 52.2072 409.046 52.998 407.716 53.8345C407.605 53.8999 407.5 53.9653 407.389 54.0372C407.272 54.1156 407.147 54.194 407.03 54.2724C406.958 54.3117 406.886 54.3639 406.814 54.4097C406.612 54.5339 406.416 54.6646 406.22 54.8018C405.828 55.0567 405.436 55.3181 405.051 55.5861C404.652 55.8541 404.26 56.1351 403.868 56.4161L403.476 56.6972L403.548 57.1808C403.613 57.5795 403.672 57.9782 403.744 58.3703C403.809 58.7625 403.875 59.1481 403.947 59.5337C404.058 60.1807 404.182 60.8212 404.306 61.4421C404.391 61.8539 404.469 62.2591 404.561 62.6577C404.646 63.0695 404.737 63.4812 404.835 63.893C405.024 64.7426 405.227 65.5661 405.443 66.3766C405.547 66.7818 405.658 67.187 405.776 67.5857C405.841 67.8275 405.906 68.0693 405.978 68.3046C406.03 68.468 406.083 68.6314 406.135 68.7948C406.148 68.8471 406.161 68.9059 406.181 68.9647C406.195 69.0201 406.213 69.0746 406.233 69.1281C406.305 69.37 406.377 69.6052 406.448 69.834C406.488 69.9581 406.527 70.0823 406.573 70.2C406.664 70.481 406.762 70.7686 406.86 71.0431C406.965 71.3568 407.076 71.6705 407.187 71.9777C407.213 72.0561 407.239 72.128 407.265 72.2064C407.285 72.2652 407.304 72.3241 407.33 72.3829C407.357 72.4482 407.383 72.5201 407.409 72.5855C407.52 72.8796 407.631 73.1802 407.748 73.4743C407.788 73.5789 407.827 73.69 407.873 73.7946C408.932 76.4572 410.233 79.0168 411.759 81.4414C410.067 79.9904 408.439 78.4524 406.873 76.8272C404.456 74.3143 402.229 71.625 400.21 68.7817C400.047 68.5595 399.884 68.3307 399.733 68.102C399.426 67.6641 399.126 67.2262 398.832 66.7818C398.518 66.3243 398.218 65.8472 397.924 65.3766C397.728 65.0629 397.532 64.7426 397.342 64.4289C397.153 64.1283 396.977 63.8342 396.807 63.5335L396.297 62.6577H396.291V62.6643L395.572 63.3701C395.285 63.6512 394.997 63.9322 394.716 64.2132C385.937 73.0516 379.577 84.0012 376.25 96.0094L376.152 96.3689L376.054 96.7414C375.864 97.4081 375.675 98.0551 375.472 98.7152V98.7217C375.276 99.3753 375.067 100.029 374.845 100.669C374.643 101.277 374.434 101.878 374.211 102.48C374.14 102.682 374.061 102.885 373.976 103.088C373.839 103.48 373.689 103.865 373.539 104.257C373.467 104.434 373.395 104.617 373.323 104.793C373.147 105.225 372.97 105.656 372.794 106.081C372.768 106.146 372.735 106.218 372.702 106.284C372.65 106.414 372.591 106.545 372.539 106.669C372.402 106.983 372.258 107.303 372.121 107.617C372.023 107.819 371.932 108.029 371.84 108.231C371.801 108.323 371.755 108.414 371.716 108.506C371.474 109.029 371.226 109.545 370.965 110.055C370.671 110.656 370.37 111.257 370.05 111.845C369.769 112.394 369.475 112.93 369.168 113.466C368.639 114.414 368.084 115.355 367.509 116.27C367.287 116.623 367.065 116.976 366.836 117.329C366.784 117.414 366.732 117.499 366.68 117.577C366.49 117.884 366.294 118.179 366.092 118.479C365.955 118.682 365.817 118.884 365.68 119.08C365.452 119.433 365.21 119.773 364.962 120.107C364.896 120.211 364.825 120.309 364.753 120.407C364.387 120.917 364.021 121.414 363.649 121.91C363.636 121.917 363.636 121.924 363.629 121.93C363.616 121.93 363.616 121.937 363.609 121.943C363.446 122.159 363.283 122.374 363.113 122.584C362.891 122.891 362.649 123.191 362.408 123.486C362.016 123.982 361.604 124.486 361.186 124.976C361.173 124.989 361.166 125.002 361.153 125.008C358.989 127.553 356.644 129.938 354.138 132.145C354.092 132.185 354.059 132.224 354.013 132.256C353.661 132.564 353.308 132.871 352.942 133.171C352.792 133.296 352.642 133.42 352.491 133.544C352.243 133.753 351.988 133.962 351.74 134.152C351.711 134.182 351.678 134.208 351.642 134.23C351.42 134.413 351.205 134.583 350.982 134.753C350.715 134.969 350.447 135.171 350.172 135.374C348.879 136.354 347.551 137.28 346.188 138.152C345.985 138.289 345.77 138.426 345.561 138.557C345.437 138.635 345.312 138.714 345.195 138.779C344.698 139.086 344.202 139.387 343.705 139.675C343.209 139.969 342.699 140.25 342.196 140.524C341.119 141.112 340.054 141.727 339.015 142.367C338.493 142.694 337.97 143.021 337.454 143.354C335.403 144.687 333.428 146.114 331.529 147.635C329.631 149.157 327.81 150.773 326.075 152.478C325.859 152.687 325.644 152.903 325.428 153.125C324.997 153.55 324.579 153.981 324.18 154.413C323.54 155.073 322.926 155.752 322.319 156.439C319.115 160.075 316.279 164.02 313.853 168.216C312.634 170.311 311.527 172.468 310.534 174.68C309.783 176.333 309.097 178.026 308.477 179.738C308.065 180.882 307.68 182.037 307.32 183.202C307.144 183.784 306.974 184.372 306.811 184.96C306.256 186.954 305.792 188.967 305.413 190.986C305.106 192.607 304.858 194.23 304.668 195.855C304.57 196.672 304.492 197.489 304.42 198.3C304.252 200.292 304.166 202.286 304.162 204.281C304.151 210.269 304.878 216.235 306.327 222.044C306.647 223.325 307.002 224.599 307.392 225.867C307.588 226.501 307.797 227.129 308.006 227.756C308.535 229.325 309.121 230.878 309.763 232.416C310.149 233.338 310.554 234.253 310.978 235.161C313.677 240.937 317.121 246.333 321.221 251.213C321.894 252.017 322.589 252.808 323.305 253.585C323.311 253.585 323.305 253.592 323.305 253.592C325.083 255.532 326.965 257.373 328.942 259.108H328.949C329.739 259.807 330.543 260.485 331.359 261.141C331.366 261.134 331.366 261.141 331.366 261.141C332.189 261.807 333.019 262.448 333.868 263.069C334.292 263.376 334.723 263.683 335.161 263.99C336.017 264.598 336.89 265.184 337.781 265.748H337.787C338.676 266.323 339.577 266.872 340.492 267.395C342.327 268.447 344.208 269.434 346.142 270.33L346.469 270.48L346.802 270.33C349.902 268.934 353.098 267.761 356.365 266.82C357.084 266.611 357.809 266.421 358.527 266.238C360.343 265.787 362.172 265.408 364.014 265.101C362.22 266.002 360.487 267.022 358.828 268.153C357.541 269.023 356.274 269.97 355 271.016C354.575 271.362 354.151 271.722 353.726 272.088L352.668 273.003L353.994 273.441C354.477 273.598 354.961 273.755 355.444 273.898C356.104 274.107 356.757 274.297 357.397 274.473C358.795 274.866 360.202 275.212 361.617 275.513C361.963 275.585 362.303 275.656 362.649 275.728C363.322 275.859 364.001 275.99 364.681 276.107C364.709 276.114 364.737 276.119 364.766 276.12C365.471 276.238 366.183 276.349 366.889 276.447C368.202 276.637 369.515 276.787 370.828 276.898C370.971 276.918 371.115 276.924 371.265 276.931C371.585 276.957 371.899 276.983 372.219 277.003C372.925 277.048 373.637 277.081 374.349 277.107C374.401 277.107 374.447 277.114 374.499 277.114C374.858 277.127 375.217 277.14 375.577 277.147C375.577 277.147 375.577 277.153 375.583 277.147C375.943 277.153 376.302 277.16 376.661 277.16H378.647C379.019 277.16 379.392 277.166 379.77 277.166C380.293 277.166 380.822 277.173 381.345 277.179C381.482 277.179 381.626 277.186 381.769 277.186C382.606 277.199 383.442 277.218 384.278 277.238C384.33 277.238 384.382 277.245 384.435 277.245C385.271 277.271 386.107 277.297 386.943 277.336C387.126 277.343 387.309 277.349 387.498 277.362C388.302 277.395 389.105 277.434 389.909 277.48C390.137 277.493 390.372 277.513 390.608 277.526C391.215 277.558 391.829 277.597 392.437 277.643C392.796 277.663 393.149 277.689 393.508 277.722C394.958 277.833 396.402 277.957 397.852 278.101C398.335 278.14 398.819 278.192 399.302 278.245C400.596 278.382 401.893 278.532 403.195 278.695C403.777 278.761 404.358 278.839 404.94 278.918C405.005 278.924 405.07 278.931 405.136 278.944C405.854 279.042 406.566 279.14 407.285 279.244C407.755 279.31 408.225 279.382 408.696 279.454C409.179 279.526 409.662 279.597 410.146 279.682C410.407 279.722 410.668 279.767 410.936 279.813C411.563 279.911 412.197 280.016 412.831 280.133C412.888 280.139 412.944 280.148 413 280.159C414.346 280.395 415.698 280.643 417.044 280.911C417.834 281.061 418.618 281.218 419.402 281.382C420.016 281.506 420.63 281.637 421.244 281.767C421.349 281.787 421.453 281.813 421.558 281.839C421.581 281.846 421.605 281.851 421.63 281.852C422.557 282.055 423.491 282.264 424.419 282.486C427.64 283.231 430.856 284.059 434.067 284.97C434.805 285.172 435.544 285.388 436.282 285.604C436.595 285.695 436.902 285.787 437.209 285.878C437.849 286.068 438.483 286.257 439.123 286.46C439.685 286.63 440.253 286.806 440.815 286.989C441.168 287.1 441.521 287.212 441.873 287.329C442.422 287.499 442.971 287.676 443.513 287.865C443.977 288.009 444.434 288.159 444.891 288.323C445.545 288.538 446.204 288.761 446.858 288.996C447.047 289.061 447.243 289.126 447.432 289.198C448.229 289.473 449.026 289.754 449.823 290.048C450.601 290.329 451.378 290.617 452.149 290.904C452.684 291.107 453.22 291.303 453.749 291.512C454.344 291.741 454.938 291.97 455.526 292.205C456.375 292.538 457.231 292.878 458.08 293.224C458.864 293.538 459.641 293.858 460.425 294.192C460.569 294.25 460.719 294.309 460.863 294.375C461.542 294.656 462.222 294.95 462.894 295.244C463.332 295.427 463.763 295.616 464.194 295.806C466.076 296.629 467.955 297.481 469.832 298.361H469.838C471.014 298.917 472.21 299.446 473.412 299.95C473.692 300.067 473.973 300.185 474.261 300.296C474.738 300.499 475.221 300.688 475.704 300.884C476.018 301.008 476.332 301.133 476.652 301.25C477.115 301.433 477.586 301.61 478.056 301.78C478.553 301.963 479.042 302.146 479.545 302.316C479.722 302.381 479.898 302.44 480.081 302.505C480.662 302.701 481.244 302.897 481.832 303.087C481.891 303.106 481.949 303.126 482.015 303.146C482.629 303.342 483.243 303.538 483.863 303.721C483.912 303.739 483.963 303.754 484.014 303.766C484.68 303.969 485.359 304.165 486.032 304.355C487.025 304.629 488.024 304.891 489.024 305.132C489.207 305.178 489.39 305.224 489.573 305.263C490.108 305.394 490.637 305.518 491.173 305.636C491.741 305.766 492.316 305.884 492.884 306.002C493.459 306.119 494.034 306.237 494.602 306.342C494.909 306.4 495.217 306.459 495.517 306.511L496.32 306.649C496.876 306.747 497.431 306.832 497.993 306.923C498.008 306.923 498.024 306.925 498.038 306.93C498.672 307.028 499.299 307.119 499.933 307.198C500.54 307.283 501.148 307.355 501.755 307.427C501.879 307.44 502.01 307.453 502.141 307.466C502.644 307.525 503.147 307.583 503.65 307.629C503.793 307.642 503.937 307.655 504.081 307.668C504.577 307.714 505.074 307.76 505.57 307.793C505.67 307.806 505.77 307.812 505.871 307.812C506.315 307.851 506.759 307.884 507.203 307.904C507.517 307.93 507.824 307.943 508.137 307.962C508.301 307.969 508.458 307.975 508.621 307.982C509.052 308.008 509.483 308.021 509.921 308.034C510.45 308.054 510.979 308.067 511.502 308.08C512.135 308.093 512.775 308.1 513.409 308.1H513.422C514.043 308.1 514.67 308.093 515.29 308.08H515.526L516.212 308.06C516.564 308.054 516.917 308.041 517.263 308.028C517.929 308.002 518.589 307.969 519.249 307.93C519.51 307.917 519.778 307.897 520.039 307.884C520.157 307.877 520.281 307.864 520.399 307.858C520.81 307.832 521.215 307.806 521.627 307.773C522.051 307.74 522.483 307.701 522.907 307.655C523.456 307.603 524.005 307.544 524.553 307.485C524.984 307.44 525.416 307.387 525.84 307.335C525.897 307.33 525.954 307.321 526.01 307.309C526.422 307.263 526.833 307.211 527.238 307.152C527.721 307.087 528.198 307.015 528.675 306.943C528.727 306.936 528.773 306.93 528.825 306.923C529.649 306.793 530.478 306.662 531.308 306.512C532.177 306.355 533.045 306.185 533.908 306.008C534.228 305.943 534.541 305.871 534.861 305.806C535.038 305.766 535.221 305.734 535.391 305.695C535.658 305.636 535.92 305.577 536.181 305.512C536.227 305.505 536.279 305.492 536.325 305.485C536.69 305.407 537.05 305.315 537.416 305.224C538.147 305.048 538.866 304.864 539.584 304.668C539.904 304.59 540.224 304.505 540.531 304.42C540.623 304.394 540.714 304.368 540.799 304.342C542.125 303.969 543.44 303.575 544.745 303.159C545.32 302.976 545.888 302.786 546.456 302.584C547.678 302.165 548.888 301.725 550.088 301.263C550.408 301.146 550.728 301.015 551.049 300.891C551.519 300.701 551.989 300.512 552.453 300.322C552.871 300.146 553.289 299.969 553.714 299.786C553.923 299.701 554.132 299.61 554.341 299.518C554.968 299.244 555.595 298.963 556.216 298.682C556.634 298.486 557.045 298.296 557.457 298.1C558.11 297.786 558.757 297.466 559.403 297.146C559.567 297.061 559.723 296.976 559.88 296.898C560.292 296.688 560.703 296.473 561.121 296.264C561.781 295.911 562.441 295.558 563.094 295.192C563.316 295.074 563.532 294.95 563.754 294.826C564.472 294.42 565.184 294.009 565.89 293.59C567.451 292.656 568.991 291.68 570.508 290.662C570.887 290.414 571.266 290.153 571.638 289.898C572.344 289.414 573.036 288.917 573.729 288.421C573.801 288.368 573.866 288.316 573.938 288.27C574.284 288.015 574.63 287.761 574.976 287.499C575.695 286.957 576.407 286.408 577.119 285.846C577.132 285.839 577.152 285.819 577.171 285.806C577.491 285.552 577.811 285.297 578.125 285.042C579.098 284.251 580.059 283.447 580.999 282.617C581.463 282.218 581.92 281.807 582.371 281.395C582.711 281.088 583.05 280.78 583.384 280.467C584.056 279.833 584.716 279.205 585.369 278.565C585.696 278.251 586.016 277.924 586.343 277.598C586.663 277.271 586.989 276.944 587.31 276.611C587.421 276.5 587.532 276.382 587.643 276.264C587.969 275.918 588.296 275.565 588.623 275.219C588.903 274.918 589.178 274.604 589.459 274.29C589.929 273.768 590.406 273.245 590.87 272.715C590.894 272.686 590.92 272.657 590.948 272.63C590.974 272.598 591 272.572 591.02 272.546H591.013C600.508 261.56 607.563 248.682 611.711 234.764C615.859 220.846 617.006 206.206 615.074 191.812C613.143 177.417 608.179 163.597 600.51 151.266C592.84 138.935 582.641 128.375 570.587 120.283L570.586 120.283Z" fill="#6C63FF"/>
<g opacity="0.15">
<path d="M438.367 43.1567C439.669 47.8365 441.628 52.3079 444.185 56.4372C439.904 52.7573 436.079 48.5775 432.791 43.9871C434.638 43.6377 436.496 43.3609 438.367 43.1567Z" fill="black"/>
<path d="M374.626 115.531C369.791 118.171 365.271 121.35 361.151 125.008C368.107 116.778 373.191 107.133 376.05 96.7415C376.085 96.6167 376.12 96.491 376.154 96.366L376.251 96.0123C379.687 83.6099 386.354 72.343 395.569 63.3642L396.294 62.6578L396.805 63.5307C399.63 68.3369 403.011 72.7937 406.878 76.809C400.953 93.5364 389.423 107.458 374.626 115.531Z" fill="black"/>
<path d="M408.678 71.0131L408.581 71.3668C408.547 71.4918 408.512 71.6175 408.478 71.7423C408.287 72.4301 408.084 73.1127 407.875 73.7923C405.808 68.4371 404.357 62.8642 403.549 57.181L403.473 56.6988L403.87 56.4154C408.84 52.8417 414.239 49.9053 419.94 47.6749C414.822 54.7181 411.007 62.6226 408.678 71.0131Z" fill="black"/>
<path d="M342.199 140.53C346.477 138.187 350.482 135.375 354.139 132.145C346.834 140.653 341.599 150.738 338.842 161.61C336.085 172.482 335.881 183.845 338.247 194.808C340.614 205.772 345.485 216.038 352.48 224.803C359.475 233.568 368.404 240.593 378.566 245.328L378.897 245.48L379.226 245.332C384.715 242.85 390.503 241.092 396.444 240.1C392.736 241.99 389.279 244.338 386.155 247.089L385.098 248.004L386.424 248.441C387.568 248.82 388.713 249.169 389.826 249.478C396.363 251.299 403.122 252.204 409.908 252.166C440.742 251.968 471.815 259.1 502.264 273.364C507.485 275.806 512.902 277.809 518.456 279.351C542.661 286.094 568.502 283.669 591.032 272.539C578.33 287.237 561.721 298.028 543.135 303.659C524.548 309.29 504.746 309.53 486.029 304.351C480.474 302.808 475.058 300.805 469.836 298.363C439.388 284.1 408.315 276.967 377.481 277.165C370.695 277.203 363.936 276.299 357.398 274.477C356.286 274.168 355.141 273.819 353.997 273.441L352.671 273.003L353.728 272.088C356.852 269.337 360.308 266.99 364.017 265.1C358.076 266.091 352.288 267.85 346.799 270.331L346.469 270.48L346.139 270.327C333.935 264.644 323.55 255.679 316.141 244.434C308.733 233.189 304.594 220.106 304.185 206.644C303.777 193.182 307.115 179.871 313.827 168.197C320.539 156.523 330.362 146.944 342.199 140.53L342.199 140.53Z" fill="black"/>
</g>
</g>
<defs>
<clipPath id="clip0_4_442">
<rect width="616" height="520" fill="white"/>
</clipPath>
</defs>
</svg>
